<svg xmlns="http://www.w3.org/2000/svg" width="1000" height="600">
<text x="500.0" y="30" text-anchor="middle" font-size="18" font-family="Arial" fill="#111">Cinder top 10 target components</text>
<text x="500.0" y="580" text-anchor="middle" font-size="14" font-family="Arial" fill="#111">Component</text>
<text x="20" y="300.0" text-anchor="middle" font-size="14" font-family="Arial" fill="#111" transform="rotate(-90 20,300.0)">Count</text>
<line x1="80" y1="520" x2="920" y2="520" stroke="#444"/>
<line x1="80" y1="80" x2="80" y2="520" stroke="#444"/>
<rect x="88.4" y="80.0" width="67.2" height="440.0" fill="#4C72B0"/>
<text x="122.0" y="535" transform="rotate(-45 122.0,535)" font-size="10" text-anchor="end" font-family="Arial">/cinder/volume/manager.py</text>
<text x="122.0" y="75.0" text-anchor="middle" font-size="10" font-family="Arial" fill="#111">53</text>
<rect x="172.4" y="204.52830188679246" width="67.2" height="315.47169811320754" fill="#4C72B0"/>
<text x="206.0" y="535" transform="rotate(-45 206.0,535)" font-size="10" text-anchor="end" font-family="Arial">/cinder/db/sqlalchemy/api.py</text>
<text x="206.0" y="199.52830188679246" text-anchor="middle" font-size="10" font-family="Arial" fill="#111">38</text>
<rect x="256.4" y="287.54716981132077" width="67.2" height="232.45283018867923" fill="#4C72B0"/>
<text x="290.0" y="535" transform="rotate(-45 290.0,535)" font-size="10" text-anchor="end" font-family="Arial">/cinder/volume/flows/manager/create_volume.py</text>
<text x="290.0" y="282.54716981132077" text-anchor="middle" font-size="10" font-family="Arial" fill="#111">28</text>
<rect x="340.4" y="320.7547169811321" width="67.2" height="199.24528301886792" fill="#4C72B0"/>
<text x="374.0" y="535" transform="rotate(-45 374.0,535)" font-size="10" text-anchor="end" font-family="Arial">/cinder/db/api.py</text>
<text x="374.0" y="315.7547169811321" text-anchor="middle" font-size="10" font-family="Arial" fill="#111">24</text>
<rect x="424.4" y="395.47169811320754" width="67.2" height="124.52830188679245" fill="#4C72B0"/>
<text x="458.0" y="535" transform="rotate(-45 458.0,535)" font-size="10" text-anchor="end" font-family="Arial">/cinder/volume/drivers/lvm.py</text>
<text x="458.0" y="390.47169811320754" text-anchor="middle" font-size="10" font-family="Arial" fill="#111">15</text>
<rect x="508.4" y="436.9811320754717" width="67.2" height="83.01886792452831" fill="#4C72B0"/>
<text x="542.0" y="535" transform="rotate(-45 542.0,535)" font-size="10" text-anchor="end" font-family="Arial">/cinder/volume/flows/api/create_volume.py</text>
<text x="542.0" y="431.9811320754717" text-anchor="middle" font-size="10" font-family="Arial" fill="#111">10</text>
<rect x="592.4" y="445.2830188679245" width="67.2" height="74.71698113207547" fill="#4C72B0"/>
<text x="626.0" y="535" transform="rotate(-45 626.0,535)" font-size="10" text-anchor="end" font-family="Arial">/cinder/volume/api.py</text>
<text x="626.0" y="440.2830188679245" text-anchor="middle" font-size="10" font-family="Arial" fill="#111">9</text>
<rect x="676.4" y="445.2830188679245" width="67.2" height="74.71698113207547" fill="#4C72B0"/>
<text x="710.0" y="535" transform="rotate(-45 710.0,535)" font-size="10" text-anchor="end" font-family="Arial">/cinder/image/image_utils.py</text>
<text x="710.0" y="440.2830188679245" text-anchor="middle" font-size="10" font-family="Arial" fill="#111">9</text>
<rect x="760.4" y="445.2830188679245" width="67.2" height="74.71698113207547" fill="#4C72B0"/>
<text x="794.0" y="535" transform="rotate(-45 794.0,535)" font-size="10" text-anchor="end" font-family="Arial">/cinder/api/v3/volumes.py</text>
<text x="794.0" y="440.2830188679245" text-anchor="middle" font-size="10" font-family="Arial" fill="#111">9</text>
<rect x="844.4" y="453.58490566037733" width="67.2" height="66.41509433962264" fill="#4C72B0"/>
<text x="878.0" y="535" transform="rotate(-45 878.0,535)" font-size="10" text-anchor="end" font-family="Arial">/cinder/scheduler/filter_scheduler.py</text>
<text x="878.0" y="448.58490566037733" text-anchor="middle" font-size="10" font-family="Arial" fill="#111">8</text>
</svg>