<svg xmlns="http://www.w3.org/2000/svg" width="1000" height="600">
<text x="500.0" y="30" text-anchor="middle" font-size="18" font-family="Arial" fill="#111">Cinder fault-type to component links (top 10)</text>
<text x="500.0" y="580" text-anchor="middle" font-size="14" font-family="Arial" fill="#111">Fault type → Target component</text>
<text x="20" y="300.0" text-anchor="middle" font-size="14" font-family="Arial" fill="#111" transform="rotate(-90 20,300.0)">Count</text>
<line x1="80" y1="520" x2="920" y2="520" stroke="#444"/>
<line x1="80" y1="80" x2="80" y2="520" stroke="#444"/>
<rect x="88.4" y="80.0" width="67.2" height="440.0" fill="#4C72B0"/>
<text x="122.0" y="535" transform="rotate(-25 122.0,535)" font-size="10" text-anchor="end" font-family="Arial">OPENSTACK_WRONG_RETURN_VALUE-VOLUME → /cinder/db/sqlalchemy/api.py</text>
<text x="122.0" y="75.0" text-anchor="middle" font-size="10" font-family="Arial" fill="#111">32</text>
<rect x="172.4" y="217.5" width="67.2" height="302.5" fill="#4C72B0"/>
<text x="206.0" y="535" transform="rotate(-25 206.0,535)" font-size="10" text-anchor="end" font-family="Arial">OPENSTACK_WRONG_RETURN_VALUE-VOLUME → /cinder/db/api.py</text>
<text x="206.0" y="212.5" text-anchor="middle" font-size="10" font-family="Arial" fill="#111">22</text>
<rect x="256.4" y="341.25" width="67.2" height="178.75" fill="#4C72B0"/>
<text x="290.0" y="535" transform="rotate(-25 290.0,535)" font-size="10" text-anchor="end" font-family="Arial">OPENSTACK_MISSING_PARAMETERS-VOLUME → /cinder/volume/manager.py</text>
<text x="290.0" y="336.25" text-anchor="middle" font-size="10" font-family="Arial" fill="#111">13</text>
<rect x="340.4" y="341.25" width="67.2" height="178.75" fill="#4C72B0"/>
<text x="374.0" y="535" transform="rotate(-25 374.0,535)" font-size="10" text-anchor="end" font-family="Arial">OPENSTACK_THROW_EXCEPTION-VOLUME → /cinder/volume/manager.py</text>
<text x="374.0" y="336.25" text-anchor="middle" font-size="10" font-family="Arial" fill="#111">13</text>
<rect x="424.4" y="341.25" width="67.2" height="178.75" fill="#4C72B0"/>
<text x="458.0" y="535" transform="rotate(-25 458.0,535)" font-size="10" text-anchor="end" font-family="Arial">OPENSTACK_MISSING_FUNCTION_CALL-VOLUME → /cinder/volume/manager.py</text>
<text x="458.0" y="336.25" text-anchor="middle" font-size="10" font-family="Arial" fill="#111">13</text>
<rect x="508.4" y="341.25" width="67.2" height="178.75" fill="#4C72B0"/>
<text x="542.0" y="535" transform="rotate(-25 542.0,535)" font-size="10" text-anchor="end" font-family="Arial">OPENSTACK_WRONG_PARAMETERS-VOLUME → /cinder/volume/manager.py</text>
<text x="542.0" y="336.25" text-anchor="middle" font-size="10" font-family="Arial" fill="#111">13</text>
<rect x="592.4" y="423.75" width="67.2" height="96.25" fill="#4C72B0"/>
<text x="626.0" y="535" transform="rotate(-25 626.0,535)" font-size="10" text-anchor="end" font-family="Arial">OPENSTACK_MISSING_FUNCTION_CALL-VOLUME → /cinder/volume/flows/manager/create_volume.py</text>
<text x="626.0" y="418.75" text-anchor="middle" font-size="10" font-family="Arial" fill="#111">7</text>
<rect x="676.4" y="451.25" width="67.2" height="68.75" fill="#4C72B0"/>
<text x="710.0" y="535" transform="rotate(-25 710.0,535)" font-size="10" text-anchor="end" font-family="Arial">OPENSTACK_MISSING_FUNCTION_CALL-VOLUME → /cinder/volume/drivers/lvm.py</text>
<text x="710.0" y="446.25" text-anchor="middle" font-size="10" font-family="Arial" fill="#111">5</text>
<rect x="760.4" y="465.0" width="67.2" height="55.0" fill="#4C72B0"/>
<text x="794.0" y="535" transform="rotate(-25 794.0,535)" font-size="10" text-anchor="end" font-family="Arial">OPENSTACK_WRONG_RETURN_VALUE-VOLUME → /cinder/api/v2/views/volumes.py</text>
<text x="794.0" y="460.0" text-anchor="middle" font-size="10" font-family="Arial" fill="#111">4</text>
<rect x="844.4" y="478.75" width="67.2" height="41.25" fill="#4C72B0"/>
<text x="878.0" y="535" transform="rotate(-25 878.0,535)" font-size="10" text-anchor="end" font-family="Arial">OPENSTACK_WRONG_RETURN_VALUE-IMAGE → /cinder/volume/flows/manager/create_volume.py</text>
<text x="878.0" y="473.75" text-anchor="middle" font-size="10" font-family="Arial" fill="#111">3</text>
</svg>