<svg xmlns="http://www.w3.org/2000/svg" width="1000" height="600">
<text x="500.0" y="30" text-anchor="middle" font-size="18" font-family="Arial" fill="#111">Neutron fault-type distribution</text>
<text x="500.0" y="580" text-anchor="middle" font-size="14" font-family="Arial" fill="#111">Fault type</text>
<text x="20" y="300.0" text-anchor="middle" font-size="14" font-family="Arial" fill="#111" transform="rotate(-90 20,300.0)">Count</text>
<line x1="80" y1="520" x2="920" y2="520" stroke="#444"/>
<line x1="80" y1="80" x2="80" y2="520" stroke="#444"/>
<rect x="94.0" y="80.0" width="112.0" height="440.0" fill="#4C72B0"/>
<text x="150.0" y="535" transform="rotate(-45 150.0,535)" font-size="10" text-anchor="end" font-family="Arial">OPENSTACK_WRONG_RETURN_VALUE-NETWORK</text>
<text x="150.0" y="75.0" text-anchor="middle" font-size="10" font-family="Arial" fill="#111">58</text>
<rect x="234.0" y="246.8965517241379" width="112.0" height="273.1034482758621" fill="#4C72B0"/>
<text x="290.0" y="535" transform="rotate(-45 290.0,535)" font-size="10" text-anchor="end" font-family="Arial">OPENSTACK_THROW_EXCEPTION-NETWORK</text>
<text x="290.0" y="241.8965517241379" text-anchor="middle" font-size="10" font-family="Arial" fill="#111">36</text>
<rect x="374.0" y="246.8965517241379" width="112.0" height="273.1034482758621" fill="#4C72B0"/>
<text x="430.0" y="535" transform="rotate(-45 430.0,535)" font-size="10" text-anchor="end" font-family="Arial">OPENSTACK_MISSING_FUNCTION_CALL-NETWORK</text>
<text x="430.0" y="241.8965517241379" text-anchor="middle" font-size="10" font-family="Arial" fill="#111">36</text>
<rect x="514.0" y="246.8965517241379" width="112.0" height="273.1034482758621" fill="#4C72B0"/>
<text x="570.0" y="535" transform="rotate(-45 570.0,535)" font-size="10" text-anchor="end" font-family="Arial">OPENSTACK_MISSING_PARAMETERS-NETWORK</text>
<text x="570.0" y="241.8965517241379" text-anchor="middle" font-size="10" font-family="Arial" fill="#111">36</text>
<rect x="654.0" y="246.8965517241379" width="112.0" height="273.1034482758621" fill="#4C72B0"/>
<text x="710.0" y="535" transform="rotate(-45 710.0,535)" font-size="10" text-anchor="end" font-family="Arial">OPENSTACK_WRONG_PARAMETERS-NETWORK</text>
<text x="710.0" y="241.8965517241379" text-anchor="middle" font-size="10" font-family="Arial" fill="#111">36</text>
<rect x="794.0" y="512.4137931034483" width="112.0" height="7.586206896551724" fill="#4C72B0"/>
<text x="850.0" y="535" transform="rotate(-45 850.0,535)" font-size="10" text-anchor="end" font-family="Arial">OPENSTACK_WRONG_RETURN_VALUE-RPC</text>
<text x="850.0" y="507.41379310344826" text-anchor="middle" font-size="10" font-family="Arial" fill="#111">1</text>
</svg>