<svg xmlns="http://www.w3.org/2000/svg" width="1000" height="600">
<text x="500.0" y="30" text-anchor="middle" font-size="18" font-family="Arial" fill="#111">Neutron components by fault-type diversity (top 10)</text>
<text x="500.0" y="580" text-anchor="middle" font-size="14" font-family="Arial" fill="#111">Component</text>
<text x="20" y="300.0" text-anchor="middle" font-size="14" font-family="Arial" fill="#111" transform="rotate(-90 20,300.0)">Distinct fault types</text>
<line x1="80" y1="520" x2="920" y2="520" stroke="#444"/>
<line x1="80" y1="80" x2="80" y2="520" stroke="#444"/>
<rect x="88.4" y="80.0" width="67.2" height="440.0" fill="#4C72B0"/>
<text x="122.0" y="535" transform="rotate(-45 122.0,535)" font-size="10" text-anchor="end" font-family="Arial">/neutron/plugins/ml2/managers.py</text>
<text x="122.0" y="75.0" text-anchor="middle" font-size="10" font-family="Arial" fill="#111">5</text>
<rect x="172.4" y="80.0" width="67.2" height="440.0" fill="#4C72B0"/>
<text x="206.0" y="535" transform="rotate(-45 206.0,535)" font-size="10" text-anchor="end" font-family="Arial">/neutron/plugins/ml2/plugin.py</text>
<text x="206.0" y="75.0" text-anchor="middle" font-size="10" font-family="Arial" fill="#111">5</text>
<rect x="256.4" y="80.0" width="67.2" height="440.0" fill="#4C72B0"/>
<text x="290.0" y="535" transform="rotate(-45 290.0,535)" font-size="10" text-anchor="end" font-family="Arial">/neutron/plugins/ml2/drivers/openvswitch/agent/ovs_neutron_agent.py</text>
<text x="290.0" y="75.0" text-anchor="middle" font-size="10" font-family="Arial" fill="#111">5</text>
<rect x="340.4" y="80.0" width="67.2" height="440.0" fill="#4C72B0"/>
<text x="374.0" y="535" transform="rotate(-45 374.0,535)" font-size="10" text-anchor="end" font-family="Arial">/neutron/db/ipam_backend_mixin.py</text>
<text x="374.0" y="75.0" text-anchor="middle" font-size="10" font-family="Arial" fill="#111">5</text>
<rect x="424.4" y="80.0" width="67.2" height="440.0" fill="#4C72B0"/>
<text x="458.0" y="535" transform="rotate(-45 458.0,535)" font-size="10" text-anchor="end" font-family="Arial">/neutron/db/agentschedulers_db.py</text>
<text x="458.0" y="75.0" text-anchor="middle" font-size="10" font-family="Arial" fill="#111">5</text>
<rect x="508.4" y="80.0" width="67.2" height="440.0" fill="#4C72B0"/>
<text x="542.0" y="535" transform="rotate(-45 542.0,535)" font-size="10" text-anchor="end" font-family="Arial">/neutron/db/db_base_plugin_v2.py</text>
<text x="542.0" y="75.0" text-anchor="middle" font-size="10" font-family="Arial" fill="#111">5</text>
<rect x="592.4" y="80.0" width="67.2" height="440.0" fill="#4C72B0"/>
<text x="626.0" y="535" transform="rotate(-45 626.0,535)" font-size="10" text-anchor="end" font-family="Arial">/neutron/agent/dhcp/agent.py</text>
<text x="626.0" y="75.0" text-anchor="middle" font-size="10" font-family="Arial" fill="#111">5</text>
<rect x="676.4" y="80.0" width="67.2" height="440.0" fill="#4C72B0"/>
<text x="710.0" y="535" transform="rotate(-45 710.0,535)" font-size="10" text-anchor="end" font-family="Arial">/neutron/api/rpc/handlers/dhcp_rpc.py</text>
<text x="710.0" y="75.0" text-anchor="middle" font-size="10" font-family="Arial" fill="#111">5</text>
<rect x="760.4" y="80.0" width="67.2" height="440.0" fill="#4C72B0"/>
<text x="794.0" y="535" transform="rotate(-45 794.0,535)" font-size="10" text-anchor="end" font-family="Arial">/neutron/notifiers/nova.py</text>
<text x="794.0" y="75.0" text-anchor="middle" font-size="10" font-family="Arial" fill="#111">5</text>
<rect x="844.4" y="168.0" width="67.2" height="352.0" fill="#4C72B0"/>
<text x="878.0" y="535" transform="rotate(-45 878.0,535)" font-size="10" text-anchor="end" font-family="Arial">/neutron/plugins/ml2/extensions/port_security.py</text>
<text x="878.0" y="163.0" text-anchor="middle" font-size="10" font-family="Arial" fill="#111">4</text>
</svg>