<svg xmlns="http://www.w3.org/2000/svg" width="1000" height="600">
<text x="500.0" y="30" text-anchor="middle" font-size="18" font-family="Arial" fill="#111">Neutron top 10 target components</text>
<text x="500.0" y="580" text-anchor="middle" font-size="14" font-family="Arial" fill="#111">Component</text>
<text x="20" y="300.0" text-anchor="middle" font-size="14" font-family="Arial" fill="#111" transform="rotate(-90 20,300.0)">Count</text>
<line x1="80" y1="520" x2="920" y2="520" stroke="#444"/>
<line x1="80" y1="80" x2="80" y2="520" stroke="#444"/>
<rect x="88.4" y="80.0" width="67.2" height="440.0" fill="#4C72B0"/>
<text x="122.0" y="535" transform="rotate(-45 122.0,535)" font-size="10" text-anchor="end" font-family="Arial">/neutron/plugins/ml2/plugin.py</text>
<text x="122.0" y="75.0" text-anchor="middle" font-size="10" font-family="Arial" fill="#111">72</text>
<rect x="172.4" y="428.33333333333337" width="67.2" height="91.66666666666666" fill="#4C72B0"/>
<text x="206.0" y="535" transform="rotate(-45 206.0,535)" font-size="10" text-anchor="end" font-family="Arial">/neutron/plugins/ml2/managers.py</text>
<text x="206.0" y="423.33333333333337" text-anchor="middle" font-size="10" font-family="Arial" fill="#111">15</text>
<rect x="256.4" y="428.33333333333337" width="67.2" height="91.66666666666666" fill="#4C72B0"/>
<text x="290.0" y="535" transform="rotate(-45 290.0,535)" font-size="10" text-anchor="end" font-family="Arial">/neutron/agent/dhcp/agent.py</text>
<text x="290.0" y="423.33333333333337" text-anchor="middle" font-size="10" font-family="Arial" fill="#111">15</text>
<rect x="340.4" y="440.55555555555554" width="67.2" height="79.44444444444444" fill="#4C72B0"/>
<text x="374.0" y="535" transform="rotate(-45 374.0,535)" font-size="10" text-anchor="end" font-family="Arial">/neutron/plugins/ml2/drivers/openvswitch/agent/ovs_neutron_agent.py</text>
<text x="374.0" y="435.55555555555554" text-anchor="middle" font-size="10" font-family="Arial" fill="#111">13</text>
<rect x="424.4" y="446.6666666666667" width="67.2" height="73.33333333333333" fill="#4C72B0"/>
<text x="458.0" y="535" transform="rotate(-45 458.0,535)" font-size="10" text-anchor="end" font-family="Arial">/neutron/agent/l3/router_info.py</text>
<text x="458.0" y="441.6666666666667" text-anchor="middle" font-size="10" font-family="Arial" fill="#111">12</text>
<rect x="508.4" y="452.77777777777777" width="67.2" height="67.22222222222221" fill="#4C72B0"/>
<text x="542.0" y="535" transform="rotate(-45 542.0,535)" font-size="10" text-anchor="end" font-family="Arial">/neutron/db/db_base_plugin_v2.py</text>
<text x="542.0" y="447.77777777777777" text-anchor="middle" font-size="10" font-family="Arial" fill="#111">11</text>
<rect x="592.4" y="477.22222222222223" width="67.2" height="42.77777777777777" fill="#4C72B0"/>
<text x="626.0" y="535" transform="rotate(-45 626.0,535)" font-size="10" text-anchor="end" font-family="Arial">/neutron/db/agentschedulers_db.py</text>
<text x="626.0" y="472.22222222222223" text-anchor="middle" font-size="10" font-family="Arial" fill="#111">7</text>
<rect x="676.4" y="477.22222222222223" width="67.2" height="42.77777777777777" fill="#4C72B0"/>
<text x="710.0" y="535" transform="rotate(-45 710.0,535)" font-size="10" text-anchor="end" font-family="Arial">/neutron/api/rpc/handlers/dhcp_rpc.py</text>
<text x="710.0" y="472.22222222222223" text-anchor="middle" font-size="10" font-family="Arial" fill="#111">7</text>
<rect x="760.4" y="489.44444444444446" width="67.2" height="30.555555555555554" fill="#4C72B0"/>
<text x="794.0" y="535" transform="rotate(-45 794.0,535)" font-size="10" text-anchor="end" font-family="Arial">/neutron/db/ipam_backend_mixin.py</text>
<text x="794.0" y="484.44444444444446" text-anchor="middle" font-size="10" font-family="Arial" fill="#111">5</text>
<rect x="844.4" y="489.44444444444446" width="67.2" height="30.555555555555554" fill="#4C72B0"/>
<text x="878.0" y="535" transform="rotate(-45 878.0,535)" font-size="10" text-anchor="end" font-family="Arial">/neutron/notifiers/nova.py</text>
<text x="878.0" y="484.44444444444446" text-anchor="middle" font-size="10" font-family="Arial" fill="#111">5</text>
</svg>