<svg xmlns="http://www.w3.org/2000/svg" width="1000" height="600">
<text x="500.0" y="30" text-anchor="middle" font-size="18" font-family="Arial" fill="#111">Neutron fault-type to component links (top 10)</text>
<text x="500.0" y="580" text-anchor="middle" font-size="14" font-family="Arial" fill="#111">Fault type → Target component</text>
<text x="20" y="300.0" text-anchor="middle" font-size="14" font-family="Arial" fill="#111" transform="rotate(-90 20,300.0)">Count</text>
<line x1="80" y1="520" x2="920" y2="520" stroke="#444"/>
<line x1="80" y1="80" x2="80" y2="520" stroke="#444"/>
<rect x="88.4" y="80.0" width="67.2" height="440.0" fill="#4C72B0"/>
<text x="122.0" y="535" transform="rotate(-25 122.0,535)" font-size="10" text-anchor="end" font-family="Arial">OPENSTACK_THROW_EXCEPTION-NETWORK → /neutron/plugins/ml2/plugin.py</text>
<text x="122.0" y="75.0" text-anchor="middle" font-size="10" font-family="Arial" fill="#111">16</text>
<rect x="172.4" y="80.0" width="67.2" height="440.0" fill="#4C72B0"/>
<text x="206.0" y="535" transform="rotate(-25 206.0,535)" font-size="10" text-anchor="end" font-family="Arial">OPENSTACK_MISSING_FUNCTION_CALL-NETWORK → /neutron/plugins/ml2/plugin.py</text>
<text x="206.0" y="75.0" text-anchor="middle" font-size="10" font-family="Arial" fill="#111">16</text>
<rect x="256.4" y="80.0" width="67.2" height="440.0" fill="#4C72B0"/>
<text x="290.0" y="535" transform="rotate(-25 290.0,535)" font-size="10" text-anchor="end" font-family="Arial">OPENSTACK_MISSING_PARAMETERS-NETWORK → /neutron/plugins/ml2/plugin.py</text>
<text x="290.0" y="75.0" text-anchor="middle" font-size="10" font-family="Arial" fill="#111">16</text>
<rect x="340.4" y="80.0" width="67.2" height="440.0" fill="#4C72B0"/>
<text x="374.0" y="535" transform="rotate(-25 374.0,535)" font-size="10" text-anchor="end" font-family="Arial">OPENSTACK_WRONG_PARAMETERS-NETWORK → /neutron/plugins/ml2/plugin.py</text>
<text x="374.0" y="75.0" text-anchor="middle" font-size="10" font-family="Arial" fill="#111">16</text>
<rect x="424.4" y="300.0" width="67.2" height="220.0" fill="#4C72B0"/>
<text x="458.0" y="535" transform="rotate(-25 458.0,535)" font-size="10" text-anchor="end" font-family="Arial">OPENSTACK_WRONG_RETURN_VALUE-NETWORK → /neutron/plugins/ml2/plugin.py</text>
<text x="458.0" y="295.0" text-anchor="middle" font-size="10" font-family="Arial" fill="#111">8</text>
<rect x="508.4" y="327.5" width="67.2" height="192.5" fill="#4C72B0"/>
<text x="542.0" y="535" transform="rotate(-25 542.0,535)" font-size="10" text-anchor="end" font-family="Arial">OPENSTACK_WRONG_RETURN_VALUE-NETWORK → /neutron/agent/dhcp/agent.py</text>
<text x="542.0" y="322.5" text-anchor="middle" font-size="10" font-family="Arial" fill="#111">7</text>
<rect x="592.4" y="382.5" width="67.2" height="137.5" fill="#4C72B0"/>
<text x="626.0" y="535" transform="rotate(-25 626.0,535)" font-size="10" text-anchor="end" font-family="Arial">OPENSTACK_WRONG_RETURN_VALUE-NETWORK → /neutron/db/external_net_db.py</text>
<text x="626.0" y="377.5" text-anchor="middle" font-size="10" font-family="Arial" fill="#111">5</text>
<rect x="676.4" y="410.0" width="67.2" height="110.0" fill="#4C72B0"/>
<text x="710.0" y="535" transform="rotate(-25 710.0,535)" font-size="10" text-anchor="end" font-family="Arial">OPENSTACK_WRONG_RETURN_VALUE-NETWORK → /neutron/db/l3_db.py</text>
<text x="710.0" y="405.0" text-anchor="middle" font-size="10" font-family="Arial" fill="#111">4</text>
<rect x="760.4" y="410.0" width="67.2" height="110.0" fill="#4C72B0"/>
<text x="794.0" y="535" transform="rotate(-25 794.0,535)" font-size="10" text-anchor="end" font-family="Arial">OPENSTACK_WRONG_RETURN_VALUE-NETWORK → /neutron/scheduler/dhcp_agent_scheduler.py</text>
<text x="794.0" y="405.0" text-anchor="middle" font-size="10" font-family="Arial" fill="#111">4</text>
<rect x="844.4" y="410.0" width="67.2" height="110.0" fill="#4C72B0"/>
<text x="878.0" y="535" transform="rotate(-25 878.0,535)" font-size="10" text-anchor="end" font-family="Arial">OPENSTACK_WRONG_RETURN_VALUE-NETWORK → /neutron/db/db_base_plugin_common.py</text>
<text x="878.0" y="405.0" text-anchor="middle" font-size="10" font-family="Arial" fill="#111">4</text>
</svg>