<svg xmlns="http://www.w3.org/2000/svg" width="1000" height="600">
<text x="500.0" y="30" text-anchor="middle" font-size="18" font-family="Arial" fill="#111">Nova fault-type distribution</text>
<text x="500.0" y="580" text-anchor="middle" font-size="14" font-family="Arial" fill="#111">Fault type</text>
<text x="20" y="300.0" text-anchor="middle" font-size="14" font-family="Arial" fill="#111" transform="rotate(-90 20,300.0)">Count</text>
<line x1="80" y1="520" x2="920" y2="520" stroke="#444"/>
<line x1="80" y1="80" x2="80" y2="520" stroke="#444"/>
<rect x="82.54545454545455" y="80.0" width="20.363636363636363" height="440.0" fill="#4C72B0"/>
<text x="92.72727272727272" y="535" transform="rotate(-45 92.72727272727272,535)" font-size="10" text-anchor="end" font-family="Arial">OPENSTACK_WRONG_RETURN_VALUE-INSTANCE</text>
<text x="92.72727272727272" y="75.0" text-anchor="middle" font-size="10" font-family="Arial" fill="#111">94</text>
<rect x="108.0" y="211.06382978723406" width="20.363636363636363" height="308.93617021276594" fill="#4C72B0"/>
<text x="118.18181818181819" y="535" transform="rotate(-45 118.18181818181819,535)" font-size="10" text-anchor="end" font-family="Arial">OPENSTACK_MISSING_FUNCTION_CALL-INSTANCE</text>
<text x="118.18181818181819" y="206.06382978723406" text-anchor="middle" font-size="10" font-family="Arial" fill="#111">66</text>
<rect x="133.45454545454544" y="318.7234042553191" width="20.363636363636363" height="201.27659574468086" fill="#4C72B0"/>
<text x="143.63636363636363" y="535" transform="rotate(-45 143.63636363636363,535)" font-size="10" text-anchor="end" font-family="Arial">OPENSTACK_THROW_EXCEPTION-INSTANCE</text>
<text x="143.63636363636363" y="313.7234042553191" text-anchor="middle" font-size="10" font-family="Arial" fill="#111">43</text>
<rect x="158.9090909090909" y="337.44680851063833" width="20.363636363636363" height="182.5531914893617" fill="#4C72B0"/>
<text x="169.0909090909091" y="535" transform="rotate(-45 169.0909090909091,535)" font-size="10" text-anchor="end" font-family="Arial">OPENSTACK_MISSING_PARAMETERS-INSTANCE</text>
<text x="169.0909090909091" y="332.44680851063833" text-anchor="middle" font-size="10" font-family="Arial" fill="#111">39</text>
<rect x="184.36363636363635" y="356.17021276595744" width="20.363636363636363" height="163.82978723404256" fill="#4C72B0"/>
<text x="194.54545454545453" y="535" transform="rotate(-45 194.54545454545453,535)" font-size="10" text-anchor="end" font-family="Arial">OPENSTACK_WRONG_PARAMETERS-INSTANCE</text>
<text x="194.54545454545453" y="351.17021276595744" text-anchor="middle" font-size="10" font-family="Arial" fill="#111">35</text>
<rect x="209.81818181818178" y="393.6170212765957" width="20.363636363636363" height="126.38297872340426" fill="#4C72B0"/>
<text x="219.99999999999997" y="535" transform="rotate(-45 219.99999999999997,535)" font-size="10" text-anchor="end" font-family="Arial">OPENSTACK_WRONG_RETURN_VALUE-IMAGE</text>
<text x="219.99999999999997" y="388.6170212765957" text-anchor="middle" font-size="10" font-family="Arial" fill="#111">27</text>
<rect x="235.27272727272725" y="449.7872340425532" width="20.363636363636363" height="70.2127659574468" fill="#4C72B0"/>
<text x="245.45454545454544" y="535" transform="rotate(-45 245.45454545454544,535)" font-size="10" text-anchor="end" font-family="Arial">OPENSTACK_WRONG_RETURN_VALUE-VOLUME</text>
<text x="245.45454545454544" y="444.7872340425532" text-anchor="middle" font-size="10" font-family="Arial" fill="#111">15</text>
<rect x="260.72727272727275" y="459.1489361702128" width="20.363636363636363" height="60.851063829787236" fill="#4C72B0"/>
<text x="270.90909090909093" y="535" transform="rotate(-45 270.90909090909093,535)" font-size="10" text-anchor="end" font-family="Arial">OPENSTACK_MISSING_FUNCTION_CALL-VOLUME</text>
<text x="270.90909090909093" y="454.1489361702128" text-anchor="middle" font-size="10" font-family="Arial" fill="#111">13</text>
<rect x="286.1818181818182" y="459.1489361702128" width="20.363636363636363" height="60.851063829787236" fill="#4C72B0"/>
<text x="296.3636363636364" y="535" transform="rotate(-45 296.3636363636364,535)" font-size="10" text-anchor="end" font-family="Arial">OPENSTACK_WRONG_RETURN_VALUE-NETWORK</text>
<text x="296.3636363636364" y="454.1489361702128" text-anchor="middle" font-size="10" font-family="Arial" fill="#111">13</text>
<rect x="311.6363636363636" y="468.51063829787233" width="20.363636363636363" height="51.48936170212766" fill="#4C72B0"/>
<text x="321.8181818181818" y="535" transform="rotate(-45 321.8181818181818,535)" font-size="10" text-anchor="end" font-family="Arial">OPENSTACK_THROW_EXCEPTION-VOLUME</text>
<text x="321.8181818181818" y="463.51063829787233" text-anchor="middle" font-size="10" font-family="Arial" fill="#111">11</text>
<rect x="337.09090909090907" y="468.51063829787233" width="20.363636363636363" height="51.48936170212766" fill="#4C72B0"/>
<text x="347.27272727272725" y="535" transform="rotate(-45 347.27272727272725,535)" font-size="10" text-anchor="end" font-family="Arial">OPENSTACK_WRONG_PARAMETERS-VOLUME</text>
<text x="347.27272727272725" y="463.51063829787233" text-anchor="middle" font-size="10" font-family="Arial" fill="#111">11</text>
<rect x="362.54545454545456" y="473.1914893617021" width="20.363636363636363" height="46.808510638297875" fill="#4C72B0"/>
<text x="372.72727272727275" y="535" transform="rotate(-45 372.72727272727275,535)" font-size="10" text-anchor="end" font-family="Arial">OPENSTACK_MISSING_PARAMETERS-VOLUME</text>
<text x="372.72727272727275" y="468.1914893617021" text-anchor="middle" font-size="10" font-family="Arial" fill="#111">10</text>
<rect x="388.0" y="487.2340425531915" width="20.363636363636363" height="32.765957446808514" fill="#4C72B0"/>
<text x="398.1818181818182" y="535" transform="rotate(-45 398.1818181818182,535)" font-size="10" text-anchor="end" font-family="Arial">OPENSTACK_MISSING_FUNCTION_CALL-NETWORK</text>
<text x="398.1818181818182" y="482.2340425531915" text-anchor="middle" font-size="10" font-family="Arial" fill="#111">7</text>
<rect x="413.45454545454544" y="491.9148936170213" width="20.363636363636363" height="28.085106382978722" fill="#4C72B0"/>
<text x="423.6363636363636" y="535" transform="rotate(-45 423.6363636363636,535)" font-size="10" text-anchor="end" font-family="Arial">OPENSTACK_WRONG_PARAMETERS-NETWORK</text>
<text x="423.6363636363636" y="486.9148936170213" text-anchor="middle" font-size="10" font-family="Arial" fill="#111">6</text>
<rect x="438.90909090909093" y="491.9148936170213" width="20.363636363636363" height="28.085106382978722" fill="#4C72B0"/>
<text x="449.0909090909091" y="535" transform="rotate(-45 449.0909090909091,535)" font-size="10" text-anchor="end" font-family="Arial">URLLIB_MISSING_FUNCTION_CALL-CLEAR</text>
<text x="449.0909090909091" y="486.9148936170213" text-anchor="middle" font-size="10" font-family="Arial" fill="#111">6</text>
<rect x="464.3636363636364" y="491.9148936170213" width="20.363636363636363" height="28.085106382978722" fill="#4C72B0"/>
<text x="474.54545454545456" y="535" transform="rotate(-45 474.54545454545456,535)" font-size="10" text-anchor="end" font-family="Arial">OPENSTACK_WRONG_PARAMETERS-IMAGE</text>
<text x="474.54545454545456" y="486.9148936170213" text-anchor="middle" font-size="10" font-family="Arial" fill="#111">6</text>
<rect x="489.8181818181818" y="496.59574468085106" width="20.363636363636363" height="23.404255319148938" fill="#4C72B0"/>
<text x="500.0" y="535" transform="rotate(-45 500.0,535)" font-size="10" text-anchor="end" font-family="Arial">OPENSTACK_MISSING_FUNCTION_CALL-IMAGE</text>
<text x="500.0" y="491.59574468085106" text-anchor="middle" font-size="10" font-family="Arial" fill="#111">5</text>
<rect x="515.2727272727273" y="496.59574468085106" width="20.363636363636363" height="23.404255319148938" fill="#4C72B0"/>
<text x="525.4545454545455" y="535" transform="rotate(-45 525.4545454545455,535)" font-size="10" text-anchor="end" font-family="Arial">DISKIO_MISSING_FUNCTION_CALL-WRITE</text>
<text x="525.4545454545455" y="491.59574468085106" text-anchor="middle" font-size="10" font-family="Arial" fill="#111">5</text>
<rect x="540.7272727272726" y="496.59574468085106" width="20.363636363636363" height="23.404255319148938" fill="#4C72B0"/>
<text x="550.9090909090909" y="535" transform="rotate(-45 550.9090909090909,535)" font-size="10" text-anchor="end" font-family="Arial">OPENSTACK_THROW_EXCEPTION-NETWORK</text>
<text x="550.9090909090909" y="491.59574468085106" text-anchor="middle" font-size="10" font-family="Arial" fill="#111">5</text>
<rect x="566.1818181818181" y="501.27659574468083" width="20.363636363636363" height="18.72340425531915" fill="#4C72B0"/>
<text x="576.3636363636364" y="535" transform="rotate(-45 576.3636363636364,535)" font-size="10" text-anchor="end" font-family="Arial">OPENSTACK_MISSING_PARAMETERS-IMAGE</text>
<text x="576.3636363636364" y="496.27659574468083" text-anchor="middle" font-size="10" font-family="Arial" fill="#111">4</text>
<rect x="591.6363636363635" y="501.27659574468083" width="20.363636363636363" height="18.72340425531915" fill="#4C72B0"/>
<text x="601.8181818181818" y="535" transform="rotate(-45 601.8181818181818,535)" font-size="10" text-anchor="end" font-family="Arial">NETIO_MISSING_FUNCTION_CALL-CLOSE</text>
<text x="601.8181818181818" y="496.27659574468083" text-anchor="middle" font-size="10" font-family="Arial" fill="#111">4</text>
<rect x="617.090909090909" y="510.63829787234044" width="20.363636363636363" height="9.361702127659575" fill="#4C72B0"/>
<text x="627.2727272727273" y="535" transform="rotate(-45 627.2727272727273,535)" font-size="10" text-anchor="end" font-family="Arial">OPENSTACK_THROW_EXCEPTION-IMAGE</text>
<text x="627.2727272727273" y="505.63829787234044" text-anchor="middle" font-size="10" font-family="Arial" fill="#111">2</text>
<rect x="642.5454545454545" y="510.63829787234044" width="20.363636363636363" height="9.361702127659575" fill="#4C72B0"/>
<text x="652.7272727272727" y="535" transform="rotate(-45 652.7272727272727,535)" font-size="10" text-anchor="end" font-family="Arial">OPENSTACK_MISSING_PARAMETERS-NETWORK</text>
<text x="652.7272727272727" y="505.63829787234044" text-anchor="middle" font-size="10" font-family="Arial" fill="#111">2</text>
<rect x="667.9999999999999" y="515.3191489361702" width="20.363636363636363" height="4.680851063829787" fill="#4C72B0"/>
<text x="678.1818181818181" y="535" transform="rotate(-45 678.1818181818181,535)" font-size="10" text-anchor="end" font-family="Arial">DISKIO_MISSING_FUNCTION_CALL-OPEN</text>
<text x="678.1818181818181" y="510.3191489361702" text-anchor="middle" font-size="10" font-family="Arial" fill="#111">1</text>
<rect x="693.4545454545454" y="515.3191489361702" width="20.363636363636363" height="4.680851063829787" fill="#4C72B0"/>
<text x="703.6363636363636" y="535" transform="rotate(-45 703.6363636363636,535)" font-size="10" text-anchor="end" font-family="Arial">OPENSTACK_WRONG_PARAMETERS-SSH</text>
<text x="703.6363636363636" y="510.3191489361702" text-anchor="middle" font-size="10" font-family="Arial" fill="#111">1</text>
<rect x="718.9090909090909" y="515.3191489361702" width="20.363636363636363" height="4.680851063829787" fill="#4C72B0"/>
<text x="729.0909090909091" y="535" transform="rotate(-45 729.0909090909091,535)" font-size="10" text-anchor="end" font-family="Arial">NETIO_MISSING_FUNCTION_CALL-SEND</text>
<text x="729.0909090909091" y="510.3191489361702" text-anchor="middle" font-size="10" font-family="Arial" fill="#111">1</text>
<rect x="744.3636363636363" y="515.3191489361702" width="20.363636363636363" height="4.680851063829787" fill="#4C72B0"/>
<text x="754.5454545454545" y="535" transform="rotate(-45 754.5454545454545,535)" font-size="10" text-anchor="end" font-family="Arial">OS_MISSING_FUNCTION_CALL-OS</text>
<text x="754.5454545454545" y="510.3191489361702" text-anchor="middle" font-size="10" font-family="Arial" fill="#111">1</text>
<rect x="769.8181818181818" y="515.3191489361702" width="20.363636363636363" height="4.680851063829787" fill="#4C72B0"/>
<text x="780.0" y="535" transform="rotate(-45 780.0,535)" font-size="10" text-anchor="end" font-family="Arial">OPENSTACK_MISSING_PARAMETERS-SSH</text>
<text x="780.0" y="510.3191489361702" text-anchor="middle" font-size="10" font-family="Arial" fill="#111">1</text>
<rect x="795.2727272727273" y="515.3191489361702" width="20.363636363636363" height="4.680851063829787" fill="#4C72B0"/>
<text x="805.4545454545455" y="535" transform="rotate(-45 805.4545454545455,535)" font-size="10" text-anchor="end" font-family="Arial">URLPARSE_MISSING_FUNCTION_CALL-URLSPLIT_IN_VAR</text>
<text x="805.4545454545455" y="510.3191489361702" text-anchor="middle" font-size="10" font-family="Arial" fill="#111">1</text>
<rect x="820.7272727272726" y="515.3191489361702" width="20.363636363636363" height="4.680851063829787" fill="#4C72B0"/>
<text x="830.9090909090909" y="535" transform="rotate(-45 830.9090909090909,535)" font-size="10" text-anchor="end" font-family="Arial">DISKIO_WRONG_PARAMETERS-WRITE</text>
<text x="830.9090909090909" y="510.3191489361702" text-anchor="middle" font-size="10" font-family="Arial" fill="#111">1</text>
<rect x="846.1818181818181" y="515.3191489361702" width="20.363636363636363" height="4.680851063829787" fill="#4C72B0"/>
<text x="856.3636363636364" y="535" transform="rotate(-45 856.3636363636364,535)" font-size="10" text-anchor="end" font-family="Arial">DISKIO_THROW_EXCEPTION-WRITE</text>
<text x="856.3636363636364" y="510.3191489361702" text-anchor="middle" font-size="10" font-family="Arial" fill="#111">1</text>
<rect x="871.6363636363635" y="515.3191489361702" width="20.363636363636363" height="4.680851063829787" fill="#4C72B0"/>
<text x="881.8181818181818" y="535" transform="rotate(-45 881.8181818181818,535)" font-size="10" text-anchor="end" font-family="Arial">DISKIO_MISSING_PARAMETERS-WRITE</text>
<text x="881.8181818181818" y="510.3191489361702" text-anchor="middle" font-size="10" font-family="Arial" fill="#111">1</text>
<rect x="897.090909090909" y="515.3191489361702" width="20.363636363636363" height="4.680851063829787" fill="#4C72B0"/>
<text x="907.2727272727273" y="535" transform="rotate(-45 907.2727272727273,535)" font-size="10" text-anchor="end" font-family="Arial">OPENSTACK_THROW_EXCEPTION-SSH</text>
<text x="907.2727272727273" y="510.3191489361702" text-anchor="middle" font-size="10" font-family="Arial" fill="#111">1</text>
</svg>