<svg xmlns="http://www.w3.org/2000/svg" width="1000" height="600">
<text x="500.0" y="30" text-anchor="middle" font-size="18" font-family="Arial" fill="#111">Nova top 10 target components</text>
<text x="500.0" y="580" text-anchor="middle" font-size="14" font-family="Arial" fill="#111">Component</text>
<text x="20" y="300.0" text-anchor="middle" font-size="14" font-family="Arial" fill="#111" transform="rotate(-90 20,300.0)">Count</text>
<line x1="80" y1="520" x2="920" y2="520" stroke="#444"/>
<line x1="80" y1="80" x2="80" y2="520" stroke="#444"/>
<rect x="88.4" y="80.0" width="67.2" height="440.0" fill="#4C72B0"/>
<text x="122.0" y="535" transform="rotate(-45 122.0,535)" font-size="10" text-anchor="end" font-family="Arial">/nova/compute/manager.py</text>
<text x="122.0" y="75.0" text-anchor="middle" font-size="10" font-family="Arial" fill="#111">80</text>
<rect x="172.4" y="239.5" width="67.2" height="280.5" fill="#4C72B0"/>
<text x="206.0" y="535" transform="rotate(-45 206.0,535)" font-size="10" text-anchor="end" font-family="Arial">/nova/virt/libvirt/driver.py</text>
<text x="206.0" y="234.5" text-anchor="middle" font-size="10" font-family="Arial" fill="#111">51</text>
<rect x="256.4" y="272.5" width="67.2" height="247.5" fill="#4C72B0"/>
<text x="290.0" y="535" transform="rotate(-45 290.0,535)" font-size="10" text-anchor="end" font-family="Arial">/nova/compute/api.py</text>
<text x="290.0" y="267.5" text-anchor="middle" font-size="10" font-family="Arial" fill="#111">45</text>
<rect x="340.4" y="366.0" width="67.2" height="154.0" fill="#4C72B0"/>
<text x="374.0" y="535" transform="rotate(-45 374.0,535)" font-size="10" text-anchor="end" font-family="Arial">/nova/db/sqlalchemy/api.py</text>
<text x="374.0" y="361.0" text-anchor="middle" font-size="10" font-family="Arial" fill="#111">28</text>
<rect x="424.4" y="388.0" width="67.2" height="132.0" fill="#4C72B0"/>
<text x="458.0" y="535" transform="rotate(-45 458.0,535)" font-size="10" text-anchor="end" font-family="Arial">/nova/compute/resource_tracker.py</text>
<text x="458.0" y="383.0" text-anchor="middle" font-size="10" font-family="Arial" fill="#111">24</text>
<rect x="508.4" y="415.5" width="67.2" height="104.5" fill="#4C72B0"/>
<text x="542.0" y="535" transform="rotate(-45 542.0,535)" font-size="10" text-anchor="end" font-family="Arial">/nova/network/neutronv2/api.py</text>
<text x="542.0" y="410.5" text-anchor="middle" font-size="10" font-family="Arial" fill="#111">19</text>
<rect x="592.4" y="437.5" width="67.2" height="82.5" fill="#4C72B0"/>
<text x="626.0" y="535" transform="rotate(-45 626.0,535)" font-size="10" text-anchor="end" font-family="Arial">/nova/api/openstack/compute/servers.py</text>
<text x="626.0" y="432.5" text-anchor="middle" font-size="10" font-family="Arial" fill="#111">15</text>
<rect x="676.4" y="437.5" width="67.2" height="82.5" fill="#4C72B0"/>
<text x="710.0" y="535" transform="rotate(-45 710.0,535)" font-size="10" text-anchor="end" font-family="Arial">/nova/conductor/manager.py</text>
<text x="710.0" y="432.5" text-anchor="middle" font-size="10" font-family="Arial" fill="#111">15</text>
<rect x="760.4" y="448.5" width="67.2" height="71.5" fill="#4C72B0"/>
<text x="794.0" y="535" transform="rotate(-45 794.0,535)" font-size="10" text-anchor="end" font-family="Arial">/nova/db/api.py</text>
<text x="794.0" y="443.5" text-anchor="middle" font-size="10" font-family="Arial" fill="#111">13</text>
<rect x="844.4" y="454.0" width="67.2" height="66.0" fill="#4C72B0"/>
<text x="878.0" y="535" transform="rotate(-45 878.0,535)" font-size="10" text-anchor="end" font-family="Arial">/nova/objects/request_spec.py</text>
<text x="878.0" y="449.0" text-anchor="middle" font-size="10" font-family="Arial" fill="#111">12</text>
</svg>