<svg xmlns="http://www.w3.org/2000/svg" width="1000" height="600">
<text x="500.0" y="30" text-anchor="middle" font-size="18" font-family="Arial" fill="#111">Nova fault-type to component links (top 10)</text>
<text x="500.0" y="580" text-anchor="middle" font-size="14" font-family="Arial" fill="#111">Fault type → Target component</text>
<text x="20" y="300.0" text-anchor="middle" font-size="14" font-family="Arial" fill="#111" transform="rotate(-90 20,300.0)">Count</text>
<line x1="80" y1="520" x2="920" y2="520" stroke="#444"/>
<line x1="80" y1="80" x2="80" y2="520" stroke="#444"/>
<rect x="88.4" y="80.0" width="67.2" height="440.0" fill="#4C72B0"/>
<text x="122.0" y="535" transform="rotate(-25 122.0,535)" font-size="10" text-anchor="end" font-family="Arial">OPENSTACK_MISSING_FUNCTION_CALL-INSTANCE → /nova/compute/manager.py</text>
<text x="122.0" y="75.0" text-anchor="middle" font-size="10" font-family="Arial" fill="#111">37</text>
<rect x="172.4" y="305.94594594594594" width="67.2" height="214.05405405405403" fill="#4C72B0"/>
<text x="206.0" y="535" transform="rotate(-25 206.0,535)" font-size="10" text-anchor="end" font-family="Arial">OPENSTACK_WRONG_RETURN_VALUE-INSTANCE → /nova/db/sqlalchemy/api.py</text>
<text x="206.0" y="300.94594594594594" text-anchor="middle" font-size="10" font-family="Arial" fill="#111">18</text>
<rect x="256.4" y="365.4054054054054" width="67.2" height="154.59459459459458" fill="#4C72B0"/>
<text x="290.0" y="535" transform="rotate(-25 290.0,535)" font-size="10" text-anchor="end" font-family="Arial">OPENSTACK_THROW_EXCEPTION-INSTANCE → /nova/compute/manager.py</text>
<text x="290.0" y="360.4054054054054" text-anchor="middle" font-size="10" font-family="Arial" fill="#111">13</text>
<rect x="340.4" y="389.18918918918916" width="67.2" height="130.8108108108108" fill="#4C72B0"/>
<text x="374.0" y="535" transform="rotate(-25 374.0,535)" font-size="10" text-anchor="end" font-family="Arial">OPENSTACK_MISSING_PARAMETERS-INSTANCE → /nova/compute/manager.py</text>
<text x="374.0" y="384.18918918918916" text-anchor="middle" font-size="10" font-family="Arial" fill="#111">11</text>
<rect x="424.4" y="389.18918918918916" width="67.2" height="130.8108108108108" fill="#4C72B0"/>
<text x="458.0" y="535" transform="rotate(-25 458.0,535)" font-size="10" text-anchor="end" font-family="Arial">OPENSTACK_WRONG_RETURN_VALUE-INSTANCE → /nova/db/api.py</text>
<text x="458.0" y="384.18918918918916" text-anchor="middle" font-size="10" font-family="Arial" fill="#111">11</text>
<rect x="508.4" y="424.8648648648649" width="67.2" height="95.13513513513513" fill="#4C72B0"/>
<text x="542.0" y="535" transform="rotate(-25 542.0,535)" font-size="10" text-anchor="end" font-family="Arial">OPENSTACK_WRONG_PARAMETERS-INSTANCE → /nova/compute/manager.py</text>
<text x="542.0" y="419.8648648648649" text-anchor="middle" font-size="10" font-family="Arial" fill="#111">8</text>
<rect x="592.4" y="424.8648648648649" width="67.2" height="95.13513513513513" fill="#4C72B0"/>
<text x="626.0" y="535" transform="rotate(-25 626.0,535)" font-size="10" text-anchor="end" font-family="Arial">OPENSTACK_WRONG_PARAMETERS-INSTANCE → /nova/compute/resource_tracker.py</text>
<text x="626.0" y="419.8648648648649" text-anchor="middle" font-size="10" font-family="Arial" fill="#111">8</text>
<rect x="676.4" y="436.7567567567568" width="67.2" height="83.24324324324324" fill="#4C72B0"/>
<text x="710.0" y="535" transform="rotate(-25 710.0,535)" font-size="10" text-anchor="end" font-family="Arial">OPENSTACK_WRONG_RETURN_VALUE-INSTANCE → /nova/compute/api.py</text>
<text x="710.0" y="431.7567567567568" text-anchor="middle" font-size="10" font-family="Arial" fill="#111">7</text>
<rect x="760.4" y="448.64864864864865" width="67.2" height="71.35135135135135" fill="#4C72B0"/>
<text x="794.0" y="535" transform="rotate(-25 794.0,535)" font-size="10" text-anchor="end" font-family="Arial">OPENSTACK_MISSING_FUNCTION_CALL-VOLUME → /nova/virt/libvirt/driver.py</text>
<text x="794.0" y="443.64864864864865" text-anchor="middle" font-size="10" font-family="Arial" fill="#111">6</text>
<rect x="844.4" y="448.64864864864865" width="67.2" height="71.35135135135135" fill="#4C72B0"/>
<text x="878.0" y="535" transform="rotate(-25 878.0,535)" font-size="10" text-anchor="end" font-family="Arial">OPENSTACK_WRONG_PARAMETERS-INSTANCE → /nova/compute/api.py</text>
<text x="878.0" y="443.64864864864865" text-anchor="middle" font-size="10" font-family="Arial" fill="#111">6</text>
</svg>