<svg xmlns="http://www.w3.org/2000/svg" width="1000" height="600">
<text x="500.0" y="30" text-anchor="middle" font-size="18" font-family="Arial" fill="#111">Top 15 fault types across all subsystems</text>
<text x="500.0" y="580" text-anchor="middle" font-size="14" font-family="Arial" fill="#111">Fault type</text>
<text x="20" y="300.0" text-anchor="middle" font-size="14" font-family="Arial" fill="#111" transform="rotate(-90 20,300.0)">Count</text>
<line x1="80" y1="520" x2="920" y2="520" stroke="#444"/>
<line x1="80" y1="80" x2="80" y2="520" stroke="#444"/>
<rect x="85.6" y="80.0" width="44.800000000000004" height="440.0" fill="#4C72B0"/>
<text x="108.0" y="535" transform="rotate(-45 108.0,535)" font-size="10" text-anchor="end" font-family="Arial">OPENSTACK_WRONG_RETURN_VALUE-VOLUME</text>
<text x="108.0" y="75.0" text-anchor="middle" font-size="10" font-family="Arial" fill="#111">96</text>
<rect x="141.6" y="80.0" width="44.800000000000004" height="440.0" fill="#4C72B0"/>
<text x="164.0" y="535" transform="rotate(-45 164.0,535)" font-size="10" text-anchor="end" font-family="Arial">OPENSTACK_WRONG_RETURN_VALUE-INSTANCE</text>
<text x="164.0" y="75.0" text-anchor="middle" font-size="10" font-family="Arial" fill="#111">96</text>
<rect x="197.6" y="194.58333333333337" width="44.800000000000004" height="325.41666666666663" fill="#4C72B0"/>
<text x="220.0" y="535" transform="rotate(-45 220.0,535)" font-size="10" text-anchor="end" font-family="Arial">OPENSTACK_WRONG_RETURN_VALUE-NETWORK</text>
<text x="220.0" y="189.58333333333337" text-anchor="middle" font-size="10" font-family="Arial" fill="#111">71</text>
<rect x="253.6" y="217.5" width="44.800000000000004" height="302.5" fill="#4C72B0"/>
<text x="276.0" y="535" transform="rotate(-45 276.0,535)" font-size="10" text-anchor="end" font-family="Arial">OPENSTACK_MISSING_FUNCTION_CALL-INSTANCE</text>
<text x="276.0" y="212.5" text-anchor="middle" font-size="10" font-family="Arial" fill="#111">66</text>
<rect x="309.6" y="240.41666666666669" width="44.800000000000004" height="279.5833333333333" fill="#4C72B0"/>
<text x="332.0" y="535" transform="rotate(-45 332.0,535)" font-size="10" text-anchor="end" font-family="Arial">OPENSTACK_MISSING_FUNCTION_CALL-VOLUME</text>
<text x="332.0" y="235.41666666666669" text-anchor="middle" font-size="10" font-family="Arial" fill="#111">61</text>
<rect x="365.6" y="304.58333333333337" width="44.800000000000004" height="215.41666666666666" fill="#4C72B0"/>
<text x="388.0" y="535" transform="rotate(-45 388.0,535)" font-size="10" text-anchor="end" font-family="Arial">OPENSTACK_THROW_EXCEPTION-VOLUME</text>
<text x="388.0" y="299.58333333333337" text-anchor="middle" font-size="10" font-family="Arial" fill="#111">47</text>
<rect x="421.6" y="309.1666666666667" width="44.800000000000004" height="210.83333333333331" fill="#4C72B0"/>
<text x="444.0" y="535" transform="rotate(-45 444.0,535)" font-size="10" text-anchor="end" font-family="Arial">OPENSTACK_WRONG_PARAMETERS-VOLUME</text>
<text x="444.0" y="304.1666666666667" text-anchor="middle" font-size="10" font-family="Arial" fill="#111">46</text>
<rect x="477.6" y="318.33333333333337" width="44.800000000000004" height="201.66666666666666" fill="#4C72B0"/>
<text x="500.0" y="535" transform="rotate(-45 500.0,535)" font-size="10" text-anchor="end" font-family="Arial">OPENSTACK_MISSING_PARAMETERS-VOLUME</text>
<text x="500.0" y="313.33333333333337" text-anchor="middle" font-size="10" font-family="Arial" fill="#111">44</text>
<rect x="533.6" y="322.9166666666667" width="44.800000000000004" height="197.08333333333331" fill="#4C72B0"/>
<text x="556.0" y="535" transform="rotate(-45 556.0,535)" font-size="10" text-anchor="end" font-family="Arial">OPENSTACK_MISSING_FUNCTION_CALL-NETWORK</text>
<text x="556.0" y="317.9166666666667" text-anchor="middle" font-size="10" font-family="Arial" fill="#111">43</text>
<rect x="589.6" y="322.9166666666667" width="44.800000000000004" height="197.08333333333331" fill="#4C72B0"/>
<text x="612.0" y="535" transform="rotate(-45 612.0,535)" font-size="10" text-anchor="end" font-family="Arial">OPENSTACK_THROW_EXCEPTION-INSTANCE</text>
<text x="612.0" y="317.9166666666667" text-anchor="middle" font-size="10" font-family="Arial" fill="#111">43</text>
<rect x="645.6" y="327.5" width="44.800000000000004" height="192.5" fill="#4C72B0"/>
<text x="668.0" y="535" transform="rotate(-45 668.0,535)" font-size="10" text-anchor="end" font-family="Arial">OPENSTACK_WRONG_PARAMETERS-NETWORK</text>
<text x="668.0" y="322.5" text-anchor="middle" font-size="10" font-family="Arial" fill="#111">42</text>
<rect x="701.6" y="332.08333333333337" width="44.800000000000004" height="187.91666666666666" fill="#4C72B0"/>
<text x="724.0" y="535" transform="rotate(-45 724.0,535)" font-size="10" text-anchor="end" font-family="Arial">OPENSTACK_THROW_EXCEPTION-NETWORK</text>
<text x="724.0" y="327.08333333333337" text-anchor="middle" font-size="10" font-family="Arial" fill="#111">41</text>
<rect x="757.6" y="341.25" width="44.800000000000004" height="178.75" fill="#4C72B0"/>
<text x="780.0" y="535" transform="rotate(-45 780.0,535)" font-size="10" text-anchor="end" font-family="Arial">OPENSTACK_WRONG_RETURN_VALUE-IMAGE</text>
<text x="780.0" y="336.25" text-anchor="middle" font-size="10" font-family="Arial" fill="#111">39</text>
<rect x="813.6" y="341.25" width="44.800000000000004" height="178.75" fill="#4C72B0"/>
<text x="836.0" y="535" transform="rotate(-45 836.0,535)" font-size="10" text-anchor="end" font-family="Arial">OPENSTACK_MISSING_PARAMETERS-INSTANCE</text>
<text x="836.0" y="336.25" text-anchor="middle" font-size="10" font-family="Arial" fill="#111">39</text>
<rect x="869.6" y="345.83333333333337" width="44.800000000000004" height="174.16666666666666" fill="#4C72B0"/>
<text x="892.0" y="535" transform="rotate(-45 892.0,535)" font-size="10" text-anchor="end" font-family="Arial">OPENSTACK_MISSING_PARAMETERS-NETWORK</text>
<text x="892.0" y="340.83333333333337" text-anchor="middle" font-size="10" font-family="Arial" fill="#111">38</text>
</svg>